<svg version="1.1" id="Layer_1" xmlns="http://www.w3.org/2000/svg" xmlns:xlink="http://www.w3.org/1999/xlink" x="0px" y="0px"
	 width="100%" viewBox="0 0 2360 1098" enable-background="new 0 0 2360 1098" xml:space="preserve">
<path fill="#FFFFFF" opacity="1.000000" stroke="none" 
	d="
M1720.000000,1099.000000 
	C1146.666870,1099.000000 573.833679,1099.000000 1.000384,1099.000000 
	C1.000256,733.000305 1.000256,367.000549 1.000128,1.000630 
	C787.666199,1.000420 1574.332397,1.000420 2360.999023,1.000210 
	C2360.999268,366.999390 2360.999268,732.998779 2360.999512,1098.999023 
	C2147.500000,1099.000000 1934.000000,1099.000000 1720.000000,1099.000000 
M582.640503,298.052399 
	C603.031555,287.805969 623.422607,277.559509 643.825317,267.307190 
	C638.904053,255.190109 633.943787,242.933762 628.949829,230.691193 
	C621.631165,212.749603 614.305054,194.811066 606.950317,176.884262 
	C601.677856,164.032913 596.248779,151.244492 591.117981,138.337173 
	C589.642517,134.625320 587.974487,132.855453 583.469055,132.870071 
	C523.496399,133.064560 463.522156,133.142319 403.550568,132.826706 
	C395.721466,132.785492 389.395844,134.821640 383.181702,139.210098 
	C367.417023,150.343262 351.138214,160.767410 335.628571,172.237213 
	C321.457184,182.717361 307.967224,194.126007 294.289886,205.264145 
	C287.298798,210.957306 280.448273,216.834915 273.731415,222.849365 
	C267.605682,228.334488 261.746124,234.116898 254.953537,240.539581 
	C312.831360,298.304443 370.385193,355.745941 427.399597,412.649048 
	C444.219238,398.007843 460.365479,383.197083 477.339325,369.404877 
	C492.215088,357.317535 507.610138,345.763245 523.519958,335.081940 
	C542.607117,322.267456 562.483093,310.627777 582.640503,298.052399 
M382.048828,461.647675 
	C389.494263,453.472626 396.741119,445.102600 404.483063,437.218719 
	C407.565918,434.079285 407.070129,432.463806 404.266571,429.667145 
	C348.824921,374.361145 293.470947,318.967194 238.089752,263.600555 
	C237.082367,262.593414 235.959946,261.701385 234.482208,260.393738 
	C224.203201,271.903229 214.056625,282.957611 204.261826,294.315338 
	C193.781555,306.467926 183.093018,318.501129 173.470383,331.318420 
	C160.220490,348.967194 147.834335,367.267273 135.236298,385.398193 
	C133.940018,387.263763 133.094635,389.875793 133.090851,392.143219 
	C132.978897,459.290436 133.048172,526.437988 132.868454,593.584900 
	C132.858688,597.230408 134.410950,598.458130 137.108215,599.576111 
	C150.837173,605.266602 164.530533,611.043884 178.284424,616.673218 
	C206.976578,628.416809 235.698959,640.086609 264.688873,651.900818 
	C265.348480,650.839539 266.245087,649.676208 266.852234,648.377563 
	C274.040375,633.001770 280.937378,617.484558 288.393860,602.240662 
	C303.531891,571.292603 321.499817,541.974182 341.646820,514.083252 
	C354.436890,496.377075 368.472382,479.570526 382.048828,461.647675 
M769.687195,438.060822 
	C801.006348,428.284973 832.793701,420.838257 865.441040,416.826477 
	C888.268982,414.021332 911.087097,412.683075 934.044189,412.995911 
	C936.300537,413.026642 938.557739,413.000000 940.654053,413.000000 
	C940.654053,354.277435 940.654053,296.226532 940.654053,238.001816 
	C851.290649,236.815155 765.206848,251.813339 682.247986,283.695282 
	C682.696777,285.483643 682.836975,286.609833 683.254272,287.621796 
	C691.752319,308.229614 700.304321,328.815155 708.800110,349.423920 
	C721.544678,380.338928 734.323608,411.240265 746.873718,442.234161 
	C748.157349,445.404083 749.641968,445.325623 752.097168,444.451111 
	C757.724182,442.446869 763.364990,440.481232 769.687195,438.060822 
M309.601074,701.940491 
	C300.228760,698.027283 290.856445,694.114075 281.114929,690.046753 
	C251.392334,771.411499 237.110611,855.197327 239.083374,941.690247 
	C297.696503,941.690247 355.743866,941.690247 413.801178,941.690247 
	C411.997559,878.215942 422.024536,816.904297 443.123138,756.923096 
	C398.688538,738.556885 354.535217,720.306946 309.601074,701.940491 
M362.048950,534.660095 
	C334.742767,575.021118 310.709259,617.176392 291.985992,662.761963 
	C293.814056,663.772522 295.690094,665.069702 297.752350,665.909485 
	C318.845184,674.499023 340.008148,682.917236 361.073273,691.573730 
	C390.664368,703.733887 420.199951,716.029663 449.725250,728.348938 
	C452.654358,729.571045 454.131317,728.910950 455.518555,726.082886 
	C464.292664,708.195374 472.772156,690.142212 482.205658,672.604614 
	C493.996582,650.684448 508.288696,630.322632 523.749695,610.832214 
	C532.589600,599.688416 541.910339,588.926086 551.788696,577.062317 
	C510.047546,536.735901 468.299927,496.403259 426.273529,455.801331 
	C420.654388,462.088440 413.098785,470.174469 405.965973,478.617645 
	C397.428131,488.723999 389.135071,499.043945 380.955841,509.444244 
	C374.614868,517.507080 368.611511,525.835510 362.048950,534.660095 
M610.575867,316.059631 
	C591.673584,327.046112 572.417786,337.475922 553.976379,349.188141 
	C538.098328,359.272369 522.929932,370.526825 507.864380,381.819611 
	C497.533173,389.563660 487.834961,398.165405 478.003815,406.559387 
	C469.378265,413.924011 461.022400,421.603882 452.427826,429.005585 
	C447.818512,432.975159 447.683746,433.167175 452.056976,437.541138 
	C490.921692,476.412933 529.788147,515.283020 568.658813,554.148804 
	C569.690125,555.179993 570.774902,556.157776 571.221924,556.580750 
	C587.613953,543.124695 603.500732,529.699219 619.802368,516.797913 
	C640.577087,500.356628 663.002502,486.366302 686.410034,473.998108 
	C696.874939,468.468628 707.624084,463.473633 718.289612,458.330048 
	C720.587708,457.221741 721.807800,456.244843 720.226685,453.486572 
	C718.627686,450.697144 717.492920,447.629639 716.277588,444.634094 
	C706.989990,421.742493 697.752441,398.830597 688.459900,375.941040 
	C679.592773,354.099274 670.711060,332.263336 661.760681,310.455597 
	C659.585327,305.155182 657.115356,299.975616 654.779724,294.738098 
	C649.086914,297.370392 644.049255,299.577057 639.120728,302.005188 
	C629.822144,306.586273 620.586487,311.294891 610.575867,316.059631 
M2096.500000,901.000000 
	C2113.658447,901.000000 2130.817383,901.063843 2147.974854,900.933167 
	C2150.639160,900.912842 2152.108398,901.511353 2153.024658,904.168640 
	C2157.602783,917.445435 2162.270508,930.693359 2167.148438,943.861877 
	C2167.648682,945.212585 2169.747070,946.852722 2171.118652,946.866577 
	C2190.571533,947.062134 2210.027100,946.999756 2229.869873,946.999756 
	C2228.195068,942.598755 2226.689453,938.510010 2225.089111,934.458862 
	C2215.417236,909.979126 2205.657471,885.533936 2196.055664,861.026794 
	C2185.044189,832.922119 2174.186279,804.757202 2163.224854,776.632935 
	C2152.496582,749.106262 2141.708984,721.602600 2130.987793,694.073181 
	C2129.950439,691.408752 2128.749023,689.847351 2125.342285,689.899414 
	C2110.186035,690.131165 2095.023926,690.064331 2079.865234,689.940002 
	C2077.172852,689.917969 2075.935059,690.666809 2074.925293,693.306030 
	C2068.405273,710.345581 2061.698486,727.314453 2054.946045,744.263916 
	C2045.024780,769.166809 2034.934326,794.002441 2025.062744,818.924927 
	C2013.945190,846.992432 2003.016113,875.134460 1991.954834,903.224365 
	C1986.287842,917.616028 1980.511230,931.964661 1974.519897,946.995728 
	C1994.507812,946.995728 2013.769165,947.041809 2033.028564,946.865967 
	C2034.039673,946.856750 2035.497070,945.140015 2035.963989,943.918884 
	C2040.922729,930.951172 2045.871948,917.974976 2050.456787,904.872803 
	C2051.541016,901.774536 2052.887695,900.888733 2056.019287,900.928833 
	C2069.177734,901.097229 2082.339355,901.000000 2096.500000,901.000000 
M1507.469360,926.972412 
	C1506.998047,925.769287 1506.528442,924.565491 1506.054932,923.363281 
	C1497.710938,902.174866 1489.336060,880.998535 1481.029541,859.795471 
	C1470.016479,831.683777 1459.076050,803.543579 1448.067993,775.429810 
	C1437.409912,748.209778 1426.610962,721.044067 1416.151123,693.748230 
	C1414.950195,690.614258 1413.558472,689.925476 1410.593628,689.948120 
	C1395.764893,690.061401 1380.933594,690.108765 1366.106445,689.917542 
	C1362.726318,689.873901 1361.149170,691.036987 1359.968750,694.110291 
	C1353.541992,710.842590 1346.974121,727.521179 1340.362061,744.181519 
	C1328.625122,773.754761 1316.795898,803.291382 1305.053101,832.862305 
	C1293.550781,861.828369 1282.096680,890.813721 1270.646240,919.800354 
	C1267.111572,928.748352 1263.657837,937.728149 1260.103882,946.855713 
	C1280.657593,946.855713 1300.635010,946.855713 1320.701782,946.855713 
	C1325.887695,932.319458 1330.972046,917.857849 1336.312744,903.491577 
	C1336.745728,902.326904 1338.932129,901.109741 1340.308960,901.103821 
	C1371.467041,900.968994 1402.625977,901.014832 1433.784668,900.971741 
	C1436.233154,900.968323 1437.327515,901.558960 1438.229736,904.258057 
	C1442.579590,917.270996 1447.305176,930.162109 1452.151367,943.000610 
	C1452.763550,944.622192 1454.856323,946.808777 1456.287964,946.827454 
	C1475.758179,947.081055 1495.232788,946.997986 1515.240356,946.997986 
	C1512.695068,940.237793 1510.318481,933.925659 1507.469360,926.972412 
M1607.353516,840.064758 
	C1607.933350,840.366577 1608.486084,840.745483 1609.096802,840.958862 
	C1620.836426,845.059753 1632.619507,848.950500 1643.137573,855.949280 
	C1652.461426,862.153442 1656.489380,870.725281 1654.851074,881.476562 
	C1653.390991,891.058777 1646.159424,896.505066 1637.534668,898.484253 
	C1629.003418,900.442078 1619.984375,900.785645 1611.169312,900.878113 
	C1596.862915,901.028320 1584.173462,895.650269 1572.852905,887.236633 
	C1566.562500,882.561523 1560.799072,877.177429 1555.366943,872.592896 
	C1543.047729,884.905884 1530.732056,897.215271 1517.533936,910.406799 
	C1525.587646,917.119812 1533.635742,924.489685 1542.354492,930.955322 
	C1559.556030,943.711792 1579.544067,949.479309 1600.534912,950.799377 
	C1620.220215,952.037415 1639.993164,951.347961 1659.029663,944.946106 
	C1674.828247,939.633179 1688.826904,931.404114 1698.947510,917.889465 
	C1712.970459,899.163513 1715.213013,877.614197 1711.848511,855.347107 
	C1708.909790,835.899048 1697.929688,821.121399 1682.011353,810.056519 
	C1667.777100,800.162292 1651.445068,794.698975 1635.273315,788.989014 
	C1623.693115,784.900330 1611.918457,781.237671 1601.780151,773.958984 
	C1589.407104,765.075989 1589.843872,745.862976 1603.672607,739.632324 
	C1619.392944,732.549377 1634.985596,733.504944 1649.851807,740.720520 
	C1658.940186,745.131653 1666.812378,752.048706 1675.709351,758.169617 
	C1686.427368,747.651428 1698.004883,736.221191 1709.680176,724.891602 
	C1711.940674,722.697998 1713.034302,720.977661 1710.036621,718.483459 
	C1706.111206,715.217407 1702.708862,711.266357 1698.579590,708.311340 
	C1680.368286,695.278931 1659.958618,687.647217 1637.664185,686.173584 
	C1623.728760,685.252441 1609.681030,685.482605 1595.891846,688.955383 
	C1576.054565,693.951416 1558.553345,702.580933 1547.011597,720.263306 
	C1533.350098,741.193054 1531.806885,763.929932 1538.859131,787.311707 
	C1544.776489,806.930847 1559.578125,818.971069 1576.997681,827.843933 
	C1586.457886,832.662598 1596.674072,835.997314 1607.353516,840.064758 
M1797.005127,808.848999 
	C1797.336060,807.425659 1797.801270,806.018738 1797.977905,804.576477 
	C1800.054932,787.616577 1806.592285,772.603394 1818.382935,760.240601 
	C1829.654785,748.421997 1843.671143,741.953613 1859.984497,739.841797 
	C1876.445435,737.710876 1892.431030,738.675171 1907.308594,746.236450 
	C1915.490723,750.394897 1922.880737,756.111328 1930.012573,760.727051 
	C1942.477173,748.264832 1955.486572,735.257812 1968.578125,722.168762 
	C1957.112915,712.152283 1944.414673,703.167847 1929.721436,696.779175 
	C1915.490601,690.591492 1900.702515,687.277161 1885.484741,686.200256 
	C1875.303345,685.479736 1864.980469,686.528748 1854.732788,687.027832 
	C1838.916626,687.798279 1824.144287,692.780701 1810.083374,699.567627 
	C1793.275757,707.680359 1778.717651,718.860474 1766.863770,733.519592 
	C1757.888916,744.618469 1750.769897,756.633728 1745.931274,770.064941 
	C1739.275513,788.540710 1736.324829,807.389282 1737.811523,827.125000 
	C1738.675781,838.597778 1740.473999,849.710693 1743.924438,860.624939 
	C1748.776733,875.973450 1756.324341,889.810120 1766.614868,902.220215 
	C1777.293457,915.098450 1789.448608,926.094727 1804.280884,934.083130 
	C1820.631470,942.889099 1837.807495,948.365356 1856.415283,950.198303 
	C1872.168457,951.750122 1887.813354,951.495056 1903.192505,948.687988 
	C1921.120483,945.415649 1937.995850,938.693237 1952.987915,927.972839 
	C1959.003540,923.670959 1964.807983,919.073547 1970.205566,914.991028 
	C1956.429077,901.225769 1943.501221,888.308411 1930.647095,875.464722 
	C1926.925659,878.467407 1923.075195,882.071899 1918.753418,884.974731 
	C1900.621948,897.153442 1880.554077,900.143555 1859.265991,897.016541 
	C1835.149536,893.474182 1817.591797,880.426025 1806.197632,859.318726 
	C1797.904297,843.955688 1796.127197,827.035095 1797.005127,808.848999 
M936.367554,209.000000 
	C937.811401,208.929108 939.255249,208.858200 940.698853,208.787308 
	C940.698853,183.388977 940.698853,158.326965 940.698853,133.133575 
	C833.784546,133.133575 727.171265,133.133575 620.196228,133.133575 
	C637.146545,174.500397 654.033264,215.712006 670.904663,256.886169 
	C756.437683,224.375061 844.301941,207.769806 936.367554,209.000000 
M204.051834,658.558228 
	C180.606461,648.820984 157.161087,639.083740 133.230484,629.145020 
	C133.230484,734.496521 133.230484,838.544189 133.230484,942.154236 
	C158.922485,942.154236 184.378967,942.154236 210.117752,942.154236 
	C207.666351,851.203613 223.307404,764.086426 254.224808,678.999268 
	C248.072372,676.484375 242.132263,674.036194 236.176727,671.626221 
	C225.702408,667.387512 215.218613,663.172058 204.051834,658.558228 
M941.000000,474.500000 
	C941.000000,463.742065 941.000000,452.984131 941.000000,442.996735 
	C927.796143,442.996735 915.205017,442.480591 902.674683,443.132477 
	C888.286194,443.881012 873.890137,445.208008 859.611267,447.130219 
	C846.112976,448.947357 832.562317,451.085297 819.394897,454.479828 
	C800.646973,459.312958 782.257507,465.524506 763.645935,470.908478 
	C759.527100,472.100006 759.570740,473.935394 760.989868,477.258545 
	C767.081177,491.523376 773.054077,505.839661 778.963074,520.181335 
	C787.022217,539.741882 795.029480,559.324158 802.968750,578.933655 
	C807.084595,589.099548 811.044983,599.329163 814.991516,609.562378 
	C816.149109,612.563965 817.842896,613.626648 821.066040,612.518250 
	C826.254944,610.733826 831.527039,609.181580 836.796570,607.642700 
	C866.404297,598.996155 896.600830,594.230713 927.476257,594.004517 
	C931.906555,593.972046 936.337219,594.000000 941.000000,594.000000 
	C941.000000,554.086853 941.000000,514.793457 941.000000,474.500000 
M1200.000000,761.500122 
	C1200.000000,754.737427 1200.000000,747.974731 1200.000000,740.771545 
	C1227.032715,740.771545 1253.429443,740.771545 1279.629395,740.771545 
	C1279.629395,723.580078 1279.629395,706.850098 1279.629395,690.386963 
	C1206.871826,690.386963 1134.485352,690.386963 1062.235962,690.386963 
	C1062.235962,707.385071 1062.235962,723.995483 1062.235962,741.061890 
	C1088.864136,741.061890 1115.260986,741.061890 1142.102783,741.061890 
	C1142.102783,809.908813 1142.102783,878.297729 1142.102783,946.696899 
	C1161.616821,946.696899 1180.678223,946.696899 1200.000000,946.696899 
	C1200.000000,885.096130 1200.000000,823.798157 1200.000000,761.500122 
M532.500000,943.000000 
	C549.592834,943.000000 566.685669,943.000000 583.875793,943.000000 
	C584.380066,901.647278 591.075562,862.015991 605.213318,823.576416 
	C560.082275,805.002808 515.200012,786.531616 470.347565,768.072693 
	C453.907166,800.882629 437.355743,909.444092 443.638641,943.000000 
	C472.889740,943.000000 502.194885,943.000000 532.500000,943.000000 
M786.539795,615.034912 
	C780.348389,599.949463 774.166931,584.859985 767.962891,569.779724 
	C760.651611,552.007935 753.315857,534.246216 746.000122,516.476318 
	C741.528381,505.614502 737.074280,494.745422 732.491638,483.585938 
	C680.291504,507.206207 633.628174,538.077942 592.505310,577.802612 
	C593.506165,578.890015 594.137817,579.618958 594.813538,580.304382 
	C618.511230,604.341797 642.194214,628.393921 665.923584,652.400024 
	C675.641663,662.231445 685.519043,671.905762 695.192810,681.780090 
	C697.515320,684.150635 698.866638,684.300415 701.661621,682.026062 
	C713.029175,672.776001 724.216492,663.149658 736.441345,655.145081 
	C753.623169,643.894775 771.668030,633.962402 789.593628,623.317993 
	C788.948792,621.468079 787.946533,618.592529 786.539795,615.034912 
M570.504639,778.000061 
	C584.556519,783.746826 598.655701,789.382507 612.621582,795.331238 
	C615.518433,796.565063 616.724670,795.845093 617.968140,793.399719 
	C621.496399,786.460815 624.724121,779.322449 628.820496,772.728760 
	C637.195068,759.248413 645.649963,745.780273 654.857422,732.867371 
	C661.863403,723.041687 670.082153,714.080811 677.476562,705.081726 
	C642.311951,669.916626 607.023376,634.627563 571.332886,598.936584 
	C567.228088,603.760437 562.696289,608.697876 558.601074,613.974121 
	C547.923157,627.731201 537.003601,641.331299 526.968689,655.550293 
	C508.976624,681.044067 494.475403,708.542542 481.910889,737.086365 
	C480.686279,739.868530 480.936768,741.209900 483.754913,742.355103 
	C499.762024,748.859863 515.748230,755.416748 531.712402,762.026306 
	C544.401306,767.279846 557.048401,772.634338 570.504639,778.000061 
M756.363342,726.949463 
	C771.415222,713.328613 788.450623,702.610107 806.216309,692.979797 
	C824.064697,683.304749 842.804565,675.773560 862.346741,670.317566 
	C883.764221,664.338135 905.516174,660.362549 927.839539,659.946167 
	C932.191589,659.864990 936.530640,659.089294 940.620239,658.660706 
	C940.620239,646.551697 940.620239,634.824524 940.620239,622.558350 
	C827.239868,623.644592 736.307251,668.230286 670.347534,760.482666 
	C631.565979,814.723206 613.727966,876.200439 613.167786,942.790466 
	C627.340393,942.790466 640.948486,942.790466 654.319946,942.790466 
	C655.559998,930.014038 656.088013,917.352234 658.171021,904.951660 
	C660.740723,889.654236 664.048584,874.425964 668.045410,859.436584 
	C673.365784,839.483398 682.290833,820.946960 692.470398,803.006287 
	C703.298218,783.923157 716.287903,766.412231 731.238220,750.428101 
	C738.923157,742.211731 747.485046,734.815552 756.363342,726.949463 
M1031.000000,872.500000 
	C1031.000000,811.765381 1031.000000,751.030762 1031.000000,690.304810 
	C1011.369995,690.304810 992.313232,690.304810 973.285645,690.304810 
	C973.285645,775.974182 973.285645,861.338440 973.285645,946.695312 
	C992.629700,946.695312 1011.686462,946.695312 1031.000000,946.695312 
	C1031.000000,922.094299 1031.000000,897.797119 1031.000000,872.500000 
M253.447128,203.033920 
	C280.367828,177.619492 309.627930,155.078583 339.945099,133.402161 
	C276.368500,133.402161 213.390701,133.402161 150.397156,133.402161 
	C160.918854,144.431137 171.089218,155.380142 181.575592,166.017639 
	C198.185486,182.866852 215.066208,199.449036 231.681259,216.293228 
	C234.501099,219.151947 236.249634,219.650177 239.229202,216.443848 
	C243.491394,211.857224 248.346573,207.821625 253.447128,203.033920 
M207.507935,247.994125 
	C209.836731,245.360352 212.165527,242.726578 213.545639,241.165726 
	C186.130753,213.678726 159.382217,186.859833 133.334900,160.743988 
	C133.334900,218.175003 133.334900,276.980225 133.334900,337.010590 
	C156.482300,305.316498 180.563339,275.914612 207.507935,247.994125 
z"/>
<path fill="#1A1AD9" opacity="1.000000" stroke="none" 
	d="
M582.328979,298.265869 
	C562.483093,310.627777 542.607117,322.267456 523.519958,335.081940 
	C507.610138,345.763245 492.215088,357.317535 477.339325,369.404877 
	C460.365479,383.197083 444.219238,398.007843 427.399597,412.649048 
	C370.385193,355.745941 312.831360,298.304443 254.953537,240.539581 
	C261.746124,234.116898 267.605682,228.334488 273.731415,222.849365 
	C280.448273,216.834915 287.298798,210.957306 294.289886,205.264145 
	C307.967224,194.126007 321.457184,182.717361 335.628571,172.237213 
	C351.138214,160.767410 367.417023,150.343262 383.181702,139.210098 
	C389.395844,134.821640 395.721466,132.785492 403.550568,132.826706 
	C463.522156,133.142319 523.496399,133.064560 583.469055,132.870071 
	C587.974487,132.855453 589.642517,134.625320 591.117981,138.337173 
	C596.248779,151.244492 601.677856,164.032913 606.950317,176.884262 
	C614.305054,194.811066 621.631165,212.749603 628.949829,230.691193 
	C633.943787,242.933762 638.904053,255.190109 643.825317,267.307190 
	C623.422607,277.559509 603.031555,287.805969 582.328979,298.265869 
z"/>
<path fill="#1A1AD9" opacity="1.000000" stroke="none" 
	d="
M381.999084,462.004089 
	C368.472382,479.570526 354.436890,496.377075 341.646820,514.083252 
	C321.499817,541.974182 303.531891,571.292603 288.393860,602.240662 
	C280.937378,617.484558 274.040375,633.001770 266.852234,648.377563 
	C266.245087,649.676208 265.348480,650.839539 264.688873,651.900818 
	C235.698959,640.086609 206.976578,628.416809 178.284424,616.673218 
	C164.530533,611.043884 150.837173,605.266602 137.108215,599.576111 
	C134.410950,598.458130 132.858688,597.230408 132.868454,593.584900 
	C133.048172,526.437988 132.978897,459.290436 133.090851,392.143219 
	C133.094635,389.875793 133.940018,387.263763 135.236298,385.398193 
	C147.834335,367.267273 160.220490,348.967194 173.470383,331.318420 
	C183.093018,318.501129 193.781555,306.467926 204.261826,294.315338 
	C214.056625,282.957611 224.203201,271.903229 234.482208,260.393738 
	C235.959946,261.701385 237.082367,262.593414 238.089752,263.600555 
	C293.470947,318.967194 348.824921,374.361145 404.266571,429.667145 
	C407.070129,432.463806 407.565918,434.079285 404.483063,437.218719 
	C396.741119,445.102600 389.494263,453.472626 381.999084,462.004089 
z"/>
<path fill="#1A1AD9" opacity="1.000000" stroke="none" 
	d="
M769.343628,438.280365 
	C763.364990,440.481232 757.724182,442.446869 752.097168,444.451111 
	C749.641968,445.325623 748.157349,445.404083 746.873718,442.234161 
	C734.323608,411.240265 721.544678,380.338928 708.800110,349.423920 
	C700.304321,328.815155 691.752319,308.229614 683.254272,287.621796 
	C682.836975,286.609833 682.696777,285.483643 682.247986,283.695282 
	C765.206848,251.813339 851.290649,236.815155 940.654053,238.001816 
	C940.654053,296.226532 940.654053,354.277435 940.654053,413.000000 
	C938.557739,413.000000 936.300537,413.026642 934.044189,412.995911 
	C911.087097,412.683075 888.268982,414.021332 865.441040,416.826477 
	C832.793701,420.838257 801.006348,428.284973 769.343628,438.280365 
z"/>
<path fill="#1A1AD9" opacity="1.000000" stroke="none" 
	d="
M309.991455,701.998779 
	C354.535217,720.306946 398.688538,738.556885 443.123138,756.923096 
	C422.024536,816.904297 411.997559,878.215942 413.801178,941.690247 
	C355.743866,941.690247 297.696503,941.690247 239.083374,941.690247 
	C237.110611,855.197327 251.392334,771.411499 281.114929,690.046753 
	C290.856445,694.114075 300.228760,698.027283 309.991455,701.998779 
z"/>
<path fill="#1A1AD9" opacity="1.000000" stroke="none" 
	d="
M362.253510,534.352966 
	C368.611511,525.835510 374.614868,517.507080 380.955841,509.444244 
	C389.135071,499.043945 397.428131,488.723999 405.965973,478.617645 
	C413.098785,470.174469 420.654388,462.088440 426.273529,455.801331 
	C468.299927,496.403259 510.047546,536.735901 551.788696,577.062317 
	C541.910339,588.926086 532.589600,599.688416 523.749695,610.832214 
	C508.288696,630.322632 493.996582,650.684448 482.205658,672.604614 
	C472.772156,690.142212 464.292664,708.195374 455.518555,726.082886 
	C454.131317,728.910950 452.654358,729.571045 449.725250,728.348938 
	C420.199951,716.029663 390.664368,703.733887 361.073273,691.573730 
	C340.008148,682.917236 318.845184,674.499023 297.752350,665.909485 
	C295.690094,665.069702 293.814056,663.772522 291.985992,662.761963 
	C310.709259,617.176392 334.742767,575.021118 362.253510,534.352966 
z"/>
<path fill="#1A1AD9" opacity="1.000000" stroke="none" 
	d="
M610.950256,316.005096 
	C620.586487,311.294891 629.822144,306.586273 639.120728,302.005188 
	C644.049255,299.577057 649.086914,297.370392 654.779724,294.738098 
	C657.115356,299.975616 659.585327,305.155182 661.760681,310.455597 
	C670.711060,332.263336 679.592773,354.099274 688.459900,375.941040 
	C697.752441,398.830597 706.989990,421.742493 716.277588,444.634094 
	C717.492920,447.629639 718.627686,450.697144 720.226685,453.486572 
	C721.807800,456.244843 720.587708,457.221741 718.289612,458.330048 
	C707.624084,463.473633 696.874939,468.468628 686.410034,473.998108 
	C663.002502,486.366302 640.577087,500.356628 619.802368,516.797913 
	C603.500732,529.699219 587.613953,543.124695 571.221924,556.580750 
	C570.774902,556.157776 569.690125,555.179993 568.658813,554.148804 
	C529.788147,515.283020 490.921692,476.412933 452.056976,437.541138 
	C447.683746,433.167175 447.818512,432.975159 452.427826,429.005585 
	C461.022400,421.603882 469.378265,413.924011 478.003815,406.559387 
	C487.834961,398.165405 497.533173,389.563660 507.864380,381.819611 
	C522.929932,370.526825 538.098328,359.272369 553.976379,349.188141 
	C572.417786,337.475922 591.673584,327.046112 610.950256,316.005096 
z"/>
<path fill="#1A1AD9" opacity="1.000000" stroke="none" 
	d="
M2096.000000,901.000000 
	C2082.339355,901.000000 2069.177734,901.097229 2056.019287,900.928833 
	C2052.887695,900.888733 2051.541016,901.774536 2050.456787,904.872803 
	C2045.871948,917.974976 2040.922729,930.951172 2035.963989,943.918884 
	C2035.497070,945.140015 2034.039673,946.856750 2033.028564,946.865967 
	C2013.769165,947.041809 1994.507812,946.995728 1974.519897,946.995728 
	C1980.511230,931.964661 1986.287842,917.616028 1991.954834,903.224365 
	C2003.016113,875.134460 2013.945190,846.992432 2025.062744,818.924927 
	C2034.934326,794.002441 2045.024780,769.166809 2054.946045,744.263916 
	C2061.698486,727.314453 2068.405273,710.345581 2074.925293,693.306030 
	C2075.935059,690.666809 2077.172852,689.917969 2079.865234,689.940002 
	C2095.023926,690.064331 2110.186035,690.131165 2125.342285,689.899414 
	C2128.749023,689.847351 2129.950439,691.408752 2130.987793,694.073181 
	C2141.708984,721.602600 2152.496582,749.106262 2163.224854,776.632935 
	C2174.186279,804.757202 2185.044189,832.922119 2196.055664,861.026794 
	C2205.657471,885.533936 2215.417236,909.979126 2225.089111,934.458862 
	C2226.689453,938.510010 2228.195068,942.598755 2229.869873,946.999756 
	C2210.027100,946.999756 2190.571533,947.062134 2171.118652,946.866577 
	C2169.747070,946.852722 2167.648682,945.212585 2167.148438,943.861877 
	C2162.270508,930.693359 2157.602783,917.445435 2153.024658,904.168640 
	C2152.108398,901.511353 2150.639160,900.912842 2147.974854,900.933167 
	C2130.817383,901.063843 2113.658447,901.000000 2096.000000,901.000000 
M2123.061279,822.320740 
	C2116.315186,803.455383 2109.569092,784.590088 2102.822754,765.724792 
	C2102.386475,765.821228 2101.950195,765.917664 2101.513916,766.014160 
	C2090.941406,794.851074 2080.369141,823.687988 2069.683105,852.834778 
	C2091.473633,852.834778 2112.593994,852.834778 2134.217285,852.834778 
	C2130.572266,842.687683 2127.036133,832.843872 2123.061279,822.320740 
z"/>
<path fill="#1A1AD9" opacity="1.000000" stroke="none" 
	d="
M1507.705688,927.292969 
	C1510.318481,933.925659 1512.695068,940.237793 1515.240356,946.997986 
	C1495.232788,946.997986 1475.758179,947.081055 1456.287964,946.827454 
	C1454.856323,946.808777 1452.763550,944.622192 1452.151367,943.000610 
	C1447.305176,930.162109 1442.579590,917.270996 1438.229736,904.258057 
	C1437.327515,901.558960 1436.233154,900.968323 1433.784668,900.971741 
	C1402.625977,901.014832 1371.467041,900.968994 1340.308960,901.103821 
	C1338.932129,901.109741 1336.745728,902.326904 1336.312744,903.491577 
	C1330.972046,917.857849 1325.887695,932.319458 1320.701782,946.855713 
	C1300.635010,946.855713 1280.657593,946.855713 1260.103882,946.855713 
	C1263.657837,937.728149 1267.111572,928.748352 1270.646240,919.800354 
	C1282.096680,890.813721 1293.550781,861.828369 1305.053101,832.862305 
	C1316.795898,803.291382 1328.625122,773.754761 1340.362061,744.181519 
	C1346.974121,727.521179 1353.541992,710.842590 1359.968750,694.110291 
	C1361.149170,691.036987 1362.726318,689.873901 1366.106445,689.917542 
	C1380.933594,690.108765 1395.764893,690.061401 1410.593628,689.948120 
	C1413.558472,689.925476 1414.950195,690.614258 1416.151123,693.748230 
	C1426.610962,721.044067 1437.409912,748.209778 1448.067993,775.429810 
	C1459.076050,803.543579 1470.016479,831.683777 1481.029541,859.795471 
	C1489.336060,880.998535 1497.710938,902.174866 1506.054932,923.363281 
	C1506.528442,924.565491 1506.998047,925.769287 1507.705688,927.292969 
M1390.552002,772.046936 
	C1389.683716,770.022705 1388.815430,767.998474 1387.397949,764.693787 
	C1376.322998,794.888184 1365.727417,823.775696 1355.104980,852.736328 
	C1376.815430,852.736328 1398.135254,852.736328 1419.537476,852.736328 
	C1416.267212,843.504883 1413.113159,834.526001 1409.906494,825.565979 
	C1403.602295,807.951233 1397.268921,790.346985 1390.552002,772.046936 
z"/>
<path fill="#1A1AD9" opacity="1.000000" stroke="none" 
	d="
M1606.951416,840.033081 
	C1596.674072,835.997314 1586.457886,832.662598 1576.997681,827.843933 
	C1559.578125,818.971069 1544.776489,806.930847 1538.859131,787.311707 
	C1531.806885,763.929932 1533.350098,741.193054 1547.011597,720.263306 
	C1558.553345,702.580933 1576.054565,693.951416 1595.891846,688.955383 
	C1609.681030,685.482605 1623.728760,685.252441 1637.664185,686.173584 
	C1659.958618,687.647217 1680.368286,695.278931 1698.579590,708.311340 
	C1702.708862,711.266357 1706.111206,715.217407 1710.036621,718.483459 
	C1713.034302,720.977661 1711.940674,722.697998 1709.680176,724.891602 
	C1698.004883,736.221191 1686.427368,747.651428 1675.709351,758.169617 
	C1666.812378,752.048706 1658.940186,745.131653 1649.851807,740.720520 
	C1634.985596,733.504944 1619.392944,732.549377 1603.672607,739.632324 
	C1589.843872,745.862976 1589.407104,765.075989 1601.780151,773.958984 
	C1611.918457,781.237671 1623.693115,784.900330 1635.273315,788.989014 
	C1651.445068,794.698975 1667.777100,800.162292 1682.011353,810.056519 
	C1697.929688,821.121399 1708.909790,835.899048 1711.848511,855.347107 
	C1715.213013,877.614197 1712.970459,899.163513 1698.947510,917.889465 
	C1688.826904,931.404114 1674.828247,939.633179 1659.029663,944.946106 
	C1639.993164,951.347961 1620.220215,952.037415 1600.534912,950.799377 
	C1579.544067,949.479309 1559.556030,943.711792 1542.354492,930.955322 
	C1533.635742,924.489685 1525.587646,917.119812 1517.533936,910.406799 
	C1530.732056,897.215271 1543.047729,884.905884 1555.366943,872.592896 
	C1560.799072,877.177429 1566.562500,882.561523 1572.852905,887.236633 
	C1584.173462,895.650269 1596.862915,901.028320 1611.169312,900.878113 
	C1619.984375,900.785645 1629.003418,900.442078 1637.534668,898.484253 
	C1646.159424,896.505066 1653.390991,891.058777 1654.851074,881.476562 
	C1656.489380,870.725281 1652.461426,862.153442 1643.137573,855.949280 
	C1632.619507,848.950500 1620.836426,845.059753 1609.096802,840.958862 
	C1608.486084,840.745483 1607.933350,840.366577 1606.951416,840.033081 
z"/>
<path fill="#1A1AD9" opacity="1.000000" stroke="none" 
	d="
M1797.002686,809.319946 
	C1796.127197,827.035095 1797.904297,843.955688 1806.197632,859.318726 
	C1817.591797,880.426025 1835.149536,893.474182 1859.265991,897.016541 
	C1880.554077,900.143555 1900.621948,897.153442 1918.753418,884.974731 
	C1923.075195,882.071899 1926.925659,878.467407 1930.647095,875.464722 
	C1943.501221,888.308411 1956.429077,901.225769 1970.205566,914.991028 
	C1964.807983,919.073547 1959.003540,923.670959 1952.987915,927.972839 
	C1937.995850,938.693237 1921.120483,945.415649 1903.192505,948.687988 
	C1887.813354,951.495056 1872.168457,951.750122 1856.415283,950.198303 
	C1837.807495,948.365356 1820.631470,942.889099 1804.280884,934.083130 
	C1789.448608,926.094727 1777.293457,915.098450 1766.614868,902.220215 
	C1756.324341,889.810120 1748.776733,875.973450 1743.924438,860.624939 
	C1740.473999,849.710693 1738.675781,838.597778 1737.811523,827.125000 
	C1736.324829,807.389282 1739.275513,788.540710 1745.931274,770.064941 
	C1750.769897,756.633728 1757.888916,744.618469 1766.863770,733.519592 
	C1778.717651,718.860474 1793.275757,707.680359 1810.083374,699.567627 
	C1824.144287,692.780701 1838.916626,687.798279 1854.732788,687.027832 
	C1864.980469,686.528748 1875.303345,685.479736 1885.484741,686.200256 
	C1900.702515,687.277161 1915.490601,690.591492 1929.721436,696.779175 
	C1944.414673,703.167847 1957.112915,712.152283 1968.578125,722.168762 
	C1955.486572,735.257812 1942.477173,748.264832 1930.012573,760.727051 
	C1922.880737,756.111328 1915.490723,750.394897 1907.308594,746.236450 
	C1892.431030,738.675171 1876.445435,737.710876 1859.984497,739.841797 
	C1843.671143,741.953613 1829.654785,748.421997 1818.382935,760.240601 
	C1806.592285,772.603394 1800.054932,787.616577 1797.977905,804.576477 
	C1797.801270,806.018738 1797.336060,807.425659 1797.002686,809.319946 
z"/>
<path fill="#1A1AD9" opacity="1.000000" stroke="none" 
	d="
M935.878967,209.000000 
	C844.301941,207.769806 756.437683,224.375061 670.904663,256.886169 
	C654.033264,215.712006 637.146545,174.500397 620.196228,133.133575 
	C727.171265,133.133575 833.784546,133.133575 940.698853,133.133575 
	C940.698853,158.326965 940.698853,183.388977 940.698853,208.787308 
	C939.255249,208.858200 937.811401,208.929108 935.878967,209.000000 
z"/>
<path fill="#1A1AD9" opacity="1.000000" stroke="none" 
	d="
M204.395309,658.752563 
	C215.218613,663.172058 225.702408,667.387512 236.176727,671.626221 
	C242.132263,674.036194 248.072372,676.484375 254.224808,678.999268 
	C223.307404,764.086426 207.666351,851.203613 210.117752,942.154236 
	C184.378967,942.154236 158.922485,942.154236 133.230484,942.154236 
	C133.230484,838.544189 133.230484,734.496521 133.230484,629.145020 
	C157.161087,639.083740 180.606461,648.820984 204.395309,658.752563 
z"/>
<path fill="#1A1AD9" opacity="1.000000" stroke="none" 
	d="
M941.000000,475.000000 
	C941.000000,514.793457 941.000000,554.086853 941.000000,594.000000 
	C936.337219,594.000000 931.906555,593.972046 927.476257,594.004517 
	C896.600830,594.230713 866.404297,598.996155 836.796570,607.642700 
	C831.527039,609.181580 826.254944,610.733826 821.066040,612.518250 
	C817.842896,613.626648 816.149109,612.563965 814.991516,609.562378 
	C811.044983,599.329163 807.084595,589.099548 802.968750,578.933655 
	C795.029480,559.324158 787.022217,539.741882 778.963074,520.181335 
	C773.054077,505.839661 767.081177,491.523376 760.989868,477.258545 
	C759.570740,473.935394 759.527100,472.100006 763.645935,470.908478 
	C782.257507,465.524506 800.646973,459.312958 819.394897,454.479828 
	C832.562317,451.085297 846.112976,448.947357 859.611267,447.130219 
	C873.890137,445.208008 888.286194,443.881012 902.674683,443.132477 
	C915.205017,442.480591 927.796143,442.996735 941.000000,442.996735 
	C941.000000,452.984131 941.000000,463.742065 941.000000,475.000000 
z"/>
<path fill="#1A1AD9" opacity="1.000000" stroke="none" 
	d="
M1200.000000,762.000122 
	C1200.000000,823.798157 1200.000000,885.096130 1200.000000,946.696899 
	C1180.678223,946.696899 1161.616821,946.696899 1142.102783,946.696899 
	C1142.102783,878.297729 1142.102783,809.908813 1142.102783,741.061890 
	C1115.260986,741.061890 1088.864136,741.061890 1062.235962,741.061890 
	C1062.235962,723.995483 1062.235962,707.385071 1062.235962,690.386963 
	C1134.485352,690.386963 1206.871826,690.386963 1279.629395,690.386963 
	C1279.629395,706.850098 1279.629395,723.580078 1279.629395,740.771545 
	C1253.429443,740.771545 1227.032715,740.771545 1200.000000,740.771545 
	C1200.000000,747.974731 1200.000000,754.737427 1200.000000,762.000122 
z"/>
<path fill="#1A1AD9" opacity="1.000000" stroke="none" 
	d="
M532.000000,943.000000 
	C502.194885,943.000000 472.889740,943.000000 443.638641,943.000000 
	C437.355743,909.444092 453.907166,800.882629 470.347565,768.072693 
	C515.200012,786.531616 560.082275,805.002808 605.213318,823.576416 
	C591.075562,862.015991 584.380066,901.647278 583.875793,943.000000 
	C566.685669,943.000000 549.592834,943.000000 532.000000,943.000000 
z"/>
<path fill="#1A1AD9" opacity="1.000000" stroke="none" 
	d="
M786.742004,615.375977 
	C787.946533,618.592529 788.948792,621.468079 789.593628,623.317993 
	C771.668030,633.962402 753.623169,643.894775 736.441345,655.145081 
	C724.216492,663.149658 713.029175,672.776001 701.661621,682.026062 
	C698.866638,684.300415 697.515320,684.150635 695.192810,681.780090 
	C685.519043,671.905762 675.641663,662.231445 665.923584,652.400024 
	C642.194214,628.393921 618.511230,604.341797 594.813538,580.304382 
	C594.137817,579.618958 593.506165,578.890015 592.505310,577.802612 
	C633.628174,538.077942 680.291504,507.206207 732.491638,483.585938 
	C737.074280,494.745422 741.528381,505.614502 746.000122,516.476318 
	C753.315857,534.246216 760.651611,552.007935 767.962891,569.779724 
	C774.166931,584.859985 780.348389,599.949463 786.742004,615.375977 
z"/>
<path fill="#1A1AD9" opacity="1.000000" stroke="none" 
	d="
M570.109375,777.972046 
	C557.048401,772.634338 544.401306,767.279846 531.712402,762.026306 
	C515.748230,755.416748 499.762024,748.859863 483.754913,742.355103 
	C480.936768,741.209900 480.686279,739.868530 481.910889,737.086365 
	C494.475403,708.542542 508.976624,681.044067 526.968689,655.550293 
	C537.003601,641.331299 547.923157,627.731201 558.601074,613.974121 
	C562.696289,608.697876 567.228088,603.760437 571.332886,598.936584 
	C607.023376,634.627563 642.311951,669.916626 677.476562,705.081726 
	C670.082153,714.080811 661.863403,723.041687 654.857422,732.867371 
	C645.649963,745.780273 637.195068,759.248413 628.820496,772.728760 
	C624.724121,779.322449 621.496399,786.460815 617.968140,793.399719 
	C616.724670,795.845093 615.518433,796.565063 612.621582,795.331238 
	C598.655701,789.382507 584.556519,783.746826 570.109375,777.972046 
z"/>
<path fill="#1A1AD9" opacity="1.000000" stroke="none" 
	d="
M756.007019,726.999084 
	C747.485046,734.815552 738.923157,742.211731 731.238220,750.428101 
	C716.287903,766.412231 703.298218,783.923157 692.470398,803.006287 
	C682.290833,820.946960 673.365784,839.483398 668.045410,859.436584 
	C664.048584,874.425964 660.740723,889.654236 658.171021,904.951660 
	C656.088013,917.352234 655.559998,930.014038 654.319946,942.790466 
	C640.948486,942.790466 627.340393,942.790466 613.167786,942.790466 
	C613.727966,876.200439 631.565979,814.723206 670.347534,760.482666 
	C736.307251,668.230286 827.239868,623.644592 940.620239,622.558350 
	C940.620239,634.824524 940.620239,646.551697 940.620239,658.660706 
	C936.530640,659.089294 932.191589,659.864990 927.839539,659.946167 
	C905.516174,660.362549 883.764221,664.338135 862.346741,670.317566 
	C842.804565,675.773560 824.064697,683.304749 806.216309,692.979797 
	C788.450623,702.610107 771.415222,713.328613 756.007019,726.999084 
z"/>
<path fill="#1A1AD9" opacity="1.000000" stroke="none" 
	d="
M1031.000000,873.000000 
	C1031.000000,897.797119 1031.000000,922.094299 1031.000000,946.695312 
	C1011.686462,946.695312 992.629700,946.695312 973.285645,946.695312 
	C973.285645,861.338440 973.285645,775.974182 973.285645,690.304810 
	C992.313232,690.304810 1011.369995,690.304810 1031.000000,690.304810 
	C1031.000000,751.030762 1031.000000,811.765381 1031.000000,873.000000 
z"/>
<path fill="#1A1AD9" opacity="1.000000" stroke="none" 
	d="
M253.197815,203.292328 
	C248.346573,207.821625 243.491394,211.857224 239.229202,216.443848 
	C236.249634,219.650177 234.501099,219.151947 231.681259,216.293228 
	C215.066208,199.449036 198.185486,182.866852 181.575592,166.017639 
	C171.089218,155.380142 160.918854,144.431137 150.397156,133.402161 
	C213.390701,133.402161 276.368500,133.402161 339.945099,133.402161 
	C309.627930,155.078583 280.367828,177.619492 253.197815,203.292328 
z"/>
<path fill="#1A1AD9" opacity="1.000000" stroke="none" 
	d="
M207.255798,248.244492 
	C180.563339,275.914612 156.482300,305.316498 133.334900,337.010590 
	C133.334900,276.980225 133.334900,218.175003 133.334900,160.743988 
	C159.382217,186.859833 186.130753,213.678726 213.545639,241.165726 
	C212.165527,242.726578 209.836731,245.360352 207.255798,248.244492 
z"/>
<path fill="#FFFFFF" opacity="1.000000" stroke="none" 
	d="
M2123.280762,822.660400 
	C2127.036133,832.843872 2130.572266,842.687683 2134.217285,852.834778 
	C2112.593994,852.834778 2091.473633,852.834778 2069.683105,852.834778 
	C2080.369141,823.687988 2090.941406,794.851074 2101.513916,766.014160 
	C2101.950195,765.917664 2102.386475,765.821228 2102.822754,765.724792 
	C2109.569092,784.590088 2116.315186,803.455383 2123.280762,822.660400 
z"/>
<path fill="#FFFFFF" opacity="1.000000" stroke="none" 
	d="
M1390.749756,772.392700 
	C1397.268921,790.346985 1403.602295,807.951233 1409.906494,825.565979 
	C1413.113159,834.526001 1416.267212,843.504883 1419.537476,852.736328 
	C1398.135254,852.736328 1376.815430,852.736328 1355.104980,852.736328 
	C1365.727417,823.775696 1376.322998,794.888184 1387.397949,764.693787 
	C1388.815430,767.998474 1389.683716,770.022705 1390.749756,772.392700 
z"/>
</svg>